# xmcd CD database file
#
# Track frame offsets:
#	150
#	20478
#	43178
#	60265
#	77077
#	93428
#	116475
#	133227
#	160739
#	183014
#	203028
#	225083
#	241150
#	265957
#	279520
#	298452
#	312435
#
# Disc length: 4729 seconds
#
# Revision: 2
# Processed by: cddbd v1.5.2PL0 Copyright (c) Steve Scherf et al.
# Submitted via: CDex 1.70beta2
#
DISCID=e6127711
DTITLE=highner - sampler - blues for axel
DYEAR=2004
DGENRE=Blues
TTITLE0=lightnin' hopkins - woke up this morning
TTITLE1=james cotton - sunny road
TTITLE2=groundhog - bdd
TTITLE3=reddog - angel from atlanta
TTITLE4=marc selby - what am i doing
TTITLE5=buddah heads - world of trouble
TTITLE6=bruce, baker, moore - waiting for the wings
TTITLE7=james solberg - l.a. blues
TTITLE8=aynsley lister - angel o' mine
TTITLE9=electric blues duo - all in love is fair
TTITLE10=black cat bones - save my love
TTITLE11=michelle shocked - when i grow up
TTITLE12=renft - caesars blues
TTITLE13=the blues agency - you know it ain't right
TTITLE14=ry cooder - he made a woman out of me
TTITLE15=the holmes brothers - i'll fly away
TTITLE16=ali farka toure with ry cooder - amandrai
EXTD=YEAR: 2004
EXTT0=
EXTT1=
EXTT2=
EXTT3=
EXTT4=
EXTT5=
EXTT6=
EXTT7=
EXTT8=
EXTT9=
EXTT10=
EXTT11=
EXTT12=
EXTT13=
EXTT14=
EXTT15=
EXTT16=
PLAYORDER=
